<svg width="241" height="46" viewBox="0 0 241 46" fill="none" xmlns="http://www.w3.org/2000/svg">
<path d="M72.4024 12.8V30.5H68.6704V22.004L70.3504 23.132H60.5824L62.2624 22.052V30.5H58.5304V12.8H62.2624V21.356L60.5824 20.24H70.3504L68.6704 21.356V12.8H72.4024ZM81.9471 21.908L82.0551 19.064L89.1351 30.5H85.0551L79.9791 21.92L81.6471 22.136L78.7431 26.036L79.0671 23.696V30.5H75.3351V12.8H79.0671V21.992L78.3711 21.608L84.8391 12.8H88.7751L81.9471 21.908ZM93.2428 15.68L94.9228 13.904V21.236L94.0828 20.18H100.611V23.06H94.0828L94.9228 22.004V29.396L93.2428 27.62H101.943V30.5H91.1788V12.8H101.943V15.68H93.2428ZM109.834 20.24L109.81 23.252L104.074 12.8H108.262L112.09 20.768H110.614L114.406 12.8H118.594L112.918 23.252L112.894 20.24L118.774 30.5H114.574L110.554 22.724H112.138L108.118 30.5H103.93L109.834 20.24ZM132.78 30.788C131.5 30.788 130.372 30.584 129.396 30.176C128.428 29.768 127.668 29.16 127.116 28.352C126.572 27.536 126.3 26.524 126.3 25.316C126.3 25.188 126.3 25.072 126.3 24.968C126.3 24.856 126.3 24.736 126.3 24.608H130.032C130.032 24.728 130.032 24.836 130.032 24.932C130.032 25.02 130.032 25.124 130.032 25.244C130.032 26.068 130.264 26.7 130.728 27.14C131.192 27.58 131.88 27.8 132.792 27.8C133.712 27.8 134.42 27.656 134.916 27.368C135.412 27.072 135.66 26.588 135.66 25.916C135.66 25.444 135.472 25.028 135.096 24.668C134.728 24.308 134.224 23.988 133.584 23.708C132.952 23.42 132.228 23.152 131.412 22.904C130.524 22.624 129.7 22.256 128.94 21.8C128.18 21.344 127.568 20.764 127.104 20.06C126.648 19.356 126.42 18.488 126.42 17.456C126.42 16.416 126.696 15.532 127.248 14.804C127.8 14.068 128.552 13.508 129.504 13.124C130.456 12.732 131.532 12.536 132.732 12.536C133.988 12.536 135.096 12.732 136.056 13.124C137.024 13.508 137.78 14.088 138.324 14.864C138.876 15.632 139.152 16.592 139.152 17.744C139.152 17.872 139.152 17.992 139.152 18.104C139.152 18.208 139.152 18.328 139.152 18.464H135.432C135.432 18.376 135.432 18.284 135.432 18.188C135.432 18.092 135.432 18 135.432 17.912C135.432 17.136 135.216 16.54 134.784 16.124C134.36 15.708 133.692 15.5 132.78 15.5C131.9 15.5 131.216 15.66 130.728 15.98C130.248 16.3 130.008 16.792 130.008 17.456C130.008 17.936 130.18 18.344 130.524 18.68C130.876 19.016 131.356 19.316 131.964 19.58C132.572 19.844 133.264 20.108 134.04 20.372C135.096 20.74 136.016 21.148 136.8 21.596C137.592 22.036 138.204 22.592 138.636 23.264C139.068 23.928 139.284 24.776 139.284 25.808C139.284 26.864 139.012 27.764 138.468 28.508C137.924 29.252 137.16 29.82 136.176 30.212C135.2 30.596 134.068 30.788 132.78 30.788ZM148.142 30.788C146.742 30.788 145.514 30.508 144.458 29.948C143.402 29.38 142.582 28.592 141.998 27.584C141.422 26.576 141.134 25.412 141.134 24.092C141.134 22.756 141.422 21.6 141.998 20.624C142.582 19.64 143.402 18.876 144.458 18.332C145.514 17.788 146.742 17.516 148.142 17.516C149.19 17.516 150.118 17.672 150.926 17.984C151.734 18.288 152.41 18.692 152.954 19.196C153.498 19.7 153.91 20.252 154.19 20.852C154.47 21.452 154.61 22.048 154.61 22.64C154.61 22.648 154.61 22.664 154.61 22.688C154.61 22.704 154.61 22.72 154.61 22.736H150.926C150.926 22.688 150.922 22.644 150.914 22.604C150.914 22.556 150.906 22.508 150.89 22.46C150.826 22.124 150.686 21.808 150.47 21.512C150.254 21.216 149.95 20.976 149.558 20.792C149.174 20.6 148.694 20.504 148.118 20.504C147.502 20.504 146.95 20.64 146.462 20.912C145.982 21.184 145.602 21.588 145.322 22.124C145.042 22.652 144.902 23.308 144.902 24.092C144.902 24.86 145.042 25.524 145.322 26.084C145.602 26.636 145.982 27.06 146.462 27.356C146.95 27.652 147.502 27.8 148.118 27.8C148.75 27.8 149.266 27.704 149.666 27.512C150.066 27.312 150.366 27.048 150.566 26.72C150.766 26.384 150.886 26.016 150.926 25.616H154.61C154.61 26.208 154.47 26.812 154.19 27.428C153.918 28.036 153.51 28.592 152.966 29.096C152.43 29.6 151.758 30.008 150.95 30.32C150.142 30.632 149.206 30.788 148.142 30.788ZM156.932 30.5V17.756H160.664V22.148L159.896 21.668C159.984 21.068 160.144 20.516 160.376 20.012C160.608 19.508 160.908 19.072 161.276 18.704C161.644 18.328 162.08 18.036 162.584 17.828C163.096 17.62 163.68 17.516 164.336 17.516C164.848 17.516 165.248 17.556 165.536 17.636C165.832 17.708 166.016 17.764 166.088 17.804L165.476 21.14C165.404 21.1 165.244 21.036 164.996 20.948C164.748 20.86 164.428 20.816 164.036 20.816C163.396 20.816 162.86 20.924 162.428 21.14C161.996 21.356 161.648 21.644 161.384 22.004C161.128 22.356 160.944 22.748 160.832 23.18C160.72 23.612 160.664 24.048 160.664 24.488V30.5H156.932ZM169.165 25.244V22.784H177.613L177.253 23.408C177.253 23.344 177.253 23.284 177.253 23.228C177.253 23.164 177.253 23.104 177.253 23.048C177.253 22.592 177.145 22.156 176.929 21.74C176.713 21.316 176.377 20.972 175.921 20.708C175.473 20.436 174.897 20.3 174.193 20.3C173.489 20.3 172.881 20.452 172.369 20.756C171.865 21.052 171.477 21.48 171.205 22.04C170.941 22.6 170.809 23.276 170.809 24.068C170.809 24.884 170.937 25.584 171.193 26.168C171.457 26.744 171.845 27.188 172.357 27.5C172.877 27.812 173.521 27.968 174.289 27.968C174.785 27.968 175.213 27.924 175.573 27.836C175.933 27.74 176.225 27.62 176.449 27.476C176.681 27.332 176.857 27.172 176.977 26.996C177.097 26.82 177.169 26.648 177.193 26.48H180.865C180.817 27.016 180.633 27.544 180.313 28.064C179.993 28.576 179.549 29.04 178.981 29.456C178.413 29.864 177.721 30.188 176.905 30.428C176.097 30.668 175.173 30.788 174.133 30.788C172.725 30.788 171.497 30.508 170.449 29.948C169.401 29.38 168.589 28.6 168.013 27.608C167.437 26.608 167.149 25.456 167.149 24.152C167.149 22.832 167.441 21.676 168.025 20.684C168.617 19.684 169.437 18.908 170.485 18.356C171.541 17.796 172.761 17.516 174.145 17.516C175.561 17.516 176.785 17.8 177.817 18.368C178.849 18.928 179.645 19.716 180.205 20.732C180.765 21.74 181.045 22.916 181.045 24.26C181.045 24.46 181.041 24.652 181.033 24.836C181.025 25.02 181.013 25.156 180.997 25.244H169.165ZM184.798 25.244V22.784H193.246L192.886 23.408C192.886 23.344 192.886 23.284 192.886 23.228C192.886 23.164 192.886 23.104 192.886 23.048C192.886 22.592 192.778 22.156 192.562 21.74C192.346 21.316 192.01 20.972 191.554 20.708C191.106 20.436 190.53 20.3 189.826 20.3C189.122 20.3 188.514 20.452 188.002 20.756C187.498 21.052 187.11 21.48 186.838 22.04C186.574 22.6 186.442 23.276 186.442 24.068C186.442 24.884 186.57 25.584 186.826 26.168C187.09 26.744 187.478 27.188 187.99 27.5C188.51 27.812 189.154 27.968 189.922 27.968C190.418 27.968 190.846 27.924 191.206 27.836C191.566 27.74 191.858 27.62 192.082 27.476C192.314 27.332 192.49 27.172 192.61 26.996C192.73 26.82 192.802 26.648 192.826 26.48H196.498C196.45 27.016 196.266 27.544 195.946 28.064C195.626 28.576 195.182 29.04 194.614 29.456C194.046 29.864 193.354 30.188 192.538 30.428C191.73 30.668 190.806 30.788 189.766 30.788C188.358 30.788 187.13 30.508 186.082 29.948C185.034 29.38 184.222 28.6 183.646 27.608C183.07 26.608 182.782 25.456 182.782 24.152C182.782 22.832 183.074 21.676 183.658 20.684C184.25 19.684 185.07 18.908 186.118 18.356C187.174 17.796 188.394 17.516 189.778 17.516C191.194 17.516 192.418 17.8 193.45 18.368C194.482 18.928 195.278 19.716 195.838 20.732C196.398 21.74 196.678 22.916 196.678 24.26C196.678 24.46 196.674 24.652 196.666 24.836C196.658 25.02 196.646 25.156 196.63 25.244H184.798ZM207.979 30.5V25.088C207.979 24.784 207.979 24.508 207.979 24.26C207.979 24.012 207.979 23.788 207.979 23.588C207.979 23.06 207.911 22.58 207.775 22.148C207.639 21.708 207.395 21.356 207.043 21.092C206.691 20.828 206.183 20.696 205.519 20.696C204.943 20.696 204.443 20.828 204.019 21.092C203.603 21.356 203.283 21.724 203.059 22.196C202.835 22.668 202.723 23.212 202.723 23.828L201.691 23.084C201.691 21.98 201.931 21.012 202.411 20.18C202.891 19.348 203.539 18.696 204.355 18.224C205.179 17.752 206.091 17.516 207.091 17.516C208.139 17.516 208.999 17.728 209.671 18.152C210.351 18.568 210.855 19.152 211.183 19.904C211.519 20.648 211.687 21.52 211.687 22.52C211.687 22.928 211.687 23.384 211.687 23.888C211.687 24.392 211.687 24.908 211.687 25.436V30.5H207.979ZM199.003 30.5V17.756H202.723V30.5H199.003ZM215.9 25.244V22.784H224.348L223.988 23.408C223.988 23.344 223.988 23.284 223.988 23.228C223.988 23.164 223.988 23.104 223.988 23.048C223.988 22.592 223.88 22.156 223.664 21.74C223.448 21.316 223.112 20.972 222.656 20.708C222.208 20.436 221.632 20.3 220.928 20.3C220.224 20.3 219.616 20.452 219.104 20.756C218.6 21.052 218.212 21.48 217.94 22.04C217.676 22.6 217.544 23.276 217.544 24.068C217.544 24.884 217.672 25.584 217.928 26.168C218.192 26.744 218.58 27.188 219.092 27.5C219.612 27.812 220.256 27.968 221.024 27.968C221.52 27.968 221.948 27.924 222.308 27.836C222.668 27.74 222.96 27.62 223.184 27.476C223.416 27.332 223.592 27.172 223.712 26.996C223.832 26.82 223.904 26.648 223.928 26.48H227.6C227.552 27.016 227.368 27.544 227.048 28.064C226.728 28.576 226.284 29.04 225.716 29.456C225.148 29.864 224.456 30.188 223.64 30.428C222.832 30.668 221.908 30.788 220.868 30.788C219.46 30.788 218.232 30.508 217.184 29.948C216.136 29.38 215.324 28.6 214.748 27.608C214.172 26.608 213.884 25.456 213.884 24.152C213.884 22.832 214.176 21.676 214.76 20.684C215.352 19.684 216.172 18.908 217.22 18.356C218.276 17.796 219.496 17.516 220.88 17.516C222.296 17.516 223.52 17.8 224.552 18.368C225.584 18.928 226.38 19.716 226.94 20.732C227.5 21.74 227.78 22.916 227.78 24.26C227.78 24.46 227.776 24.652 227.768 24.836C227.76 25.02 227.748 25.156 227.732 25.244H215.9ZM230.104 30.5V17.756H233.836V22.148L233.068 21.668C233.156 21.068 233.316 20.516 233.548 20.012C233.78 19.508 234.08 19.072 234.448 18.704C234.816 18.328 235.252 18.036 235.756 17.828C236.268 17.62 236.852 17.516 237.508 17.516C238.02 17.516 238.42 17.556 238.708 17.636C239.004 17.708 239.188 17.764 239.26 17.804L238.648 21.14C238.576 21.1 238.416 21.036 238.168 20.948C237.92 20.86 237.6 20.816 237.208 20.816C236.568 20.816 236.032 20.924 235.6 21.14C235.168 21.356 234.82 21.644 234.556 22.004C234.3 22.356 234.116 22.748 234.004 23.18C233.892 23.612 233.836 24.048 233.836 24.488V30.5H230.104Z" fill="#074C83"/>
<path d="M23.6562 9.13714C23.6562 6.16373 27.2723 4.69827 29.3424 6.83275L41.1081 18.9647C42.3643 20.26 43.0668 21.9935 43.0668 23.7978V37.3326C43.0668 40.306 39.4508 41.7715 37.3807 39.637L25.615 27.5051C24.3588 26.2098 23.6562 24.4763 23.6562 22.6719V9.13714Z" fill="#0C7FDA"/>
<path d="M11.625 8.66742C11.625 5.69401 15.241 4.22855 17.3111 6.36303L28.7954 18.2047C30.2321 19.6861 31.0356 21.6687 31.0356 23.7324V36.8629C31.0356 39.8363 27.4195 41.3017 25.3495 39.1672L13.5837 27.0353C12.3275 25.74 11.625 24.0065 11.625 22.2021V8.66742Z" fill="#2196F3"/>
<path d="M0 9.13707C0 6.16366 3.61605 4.6982 5.68611 6.83268L17.4518 18.9646C18.708 20.2599 19.4106 21.9934 19.4106 23.7978V37.3325C19.4106 40.3059 15.7945 41.7714 13.7245 39.6369L1.95873 27.505C0.702531 26.2097 0 24.4762 0 22.6718V9.13707Z" fill="#6EBBF7"/>
</svg>
